<svg xmlns="http://www.w3.org/2000/svg" viewBox="0 0 48 48" width="24" height="24">
  <rect width="48" height="48" rx="8" fill="#fff"/>
  <path fill="#EA4335" d="M24 12c3.6 0 6.6 1.5 8.8 3.8l6.5-6.1C34.9 6.1 29.8 4 24 4 14.8 4 6.9 9.8 3.4 18.8l7.5 5.8C12.6 18.4 17.8 12 24 12z"/>
  <path fill="#34A853" d="M46.8 24.5c0-1-.1-1.9-.3-2.8H24v6.6h12.6c-.5 2.7-2.1 4.9-4.5 6.3l6.9 5.4c4.1-3.8 6.8-9.3 6.8-15.5z"/>
  <path fill="#FBBC05" d="M10.9 31.8c-2-3-3.1-6.6-3.1-10.3s1.1-7.3 3.1-10.3l-7.5-5.8C0.9 10.7 0 17 0 24s0.9 13.3 6.5 18.6l7.5-5.8z"/>
  <path fill="#4285F4" d="M24 44c5.9 0 10.9-1.9 14.6-5.2l-7.1-5.6C29.9 33 27.1 34 24 34c-6.3 0-11.7-4.6-13.1-10.7l-7.5 5.8C6.9 38.2 14.8 44 24 44z"/>
</svg>
